<svg width="750" height="238" viewBox="0 0 750 238" fill="none" xmlns="http://www.w3.org/2000/svg">
<g clip-path="url(#clip0_1_11)">
<path d="M0 119C0 53.4543 54.7058 0 120.226 0C190.834 0 239.815 48.3635 239.815 119C239.815 183.909 185.109 238 120.226 238C49.6167 238 0 189.637 0 119ZM201.648 119C201.648 71.9093 167.297 33.7277 120.226 33.7277C73.1547 33.7277 38.1668 71.9093 38.1668 119C38.1668 166.091 73.1523 204.272 120.226 204.272C167.3 204.272 201.648 166.091 201.648 119Z" fill="white"/>
<path d="M270.359 152.091C270.359 122.818 291.351 102.455 319.976 102.455H332.698V135.546H322.52C312.978 135.546 305.982 141.909 305.982 152.091V234.818H270.359V152.091Z" fill="white"/>
<path d="M361.962 168.636V3.18246H397.585V113.909C405.218 105 419.848 99.2723 436.388 99.2723C476.462 99.2723 504.451 127.272 504.451 168.636C504.451 206.818 471.373 238 433.207 238C391.859 238 361.962 210 361.962 168.636ZM468.829 168.636C468.829 147.636 454.199 132.363 433.206 132.363C412.851 132.363 397.584 147.636 397.584 168.636C397.584 189 412.851 204.909 433.206 204.909C454.199 204.909 468.829 189 468.829 168.636Z" fill="white"/>
<path d="M537.536 21.6377C537.536 9.54606 547.713 0 559.8 0C571.887 0 581.427 9.54606 581.427 21.6377C581.427 33.7293 571.886 43.9096 559.8 43.9096C547.715 43.9096 537.536 33.7279 537.536 21.6377ZM541.352 102.455H576.975V234.818H541.352V102.455Z" fill="white"/>
<path d="M617.689 204.909H706.108C712.47 204.909 716.922 200.454 716.922 194.09C716.922 188.362 712.47 183.909 706.108 183.909H654.583C632.319 183.909 613.872 166.091 613.872 143.182C613.872 121.545 632.319 102.454 654.583 102.454H733.461V132.363H657.763C652.039 132.363 646.95 136.818 646.95 142.544C646.95 148.909 651.403 153.363 657.763 153.363H709.289C731.552 153.363 750 170.544 750 194.09C750 215.091 731.552 234.818 709.289 234.818H617.689V204.909Z" fill="white"/>
</g>
<defs>
<clipPath id="clip0_1_11">
<rect width="750" height="238" fill="white"/>
</clipPath>
</defs>
</svg>
